<?xml version="1.0" encoding="iso-8859-1"?>
<!-- Uploaded to: SVG Repo, www.svgrepo.com, Generator: SVG Repo Mixer Tools -->
<svg height="800px" width="800px" version="1.1" id="Layer_1" xmlns="http://www.w3.org/2000/svg" xmlns:xlink="http://www.w3.org/1999/xlink" 
	 viewBox="0 0 392.534 392.534" xml:space="preserve">
<path style="fill:#FFFFFF;" d="M284.95,213.56c-2.392,3.038-6.206,4.59-9.956,4.008c-3.814-0.453-7.046-2.909-8.598-6.4
	L196.255,51.556l-70.271,159.612c-1.552,3.491-4.784,5.947-8.598,6.4c-3.814,0.517-7.564-1.034-9.956-4.008L29.92,115.944
	l38.271,199.822H324.32l38.141-199.822L284.95,213.56z"/>
<polygon style="fill:#FFC10D;" points="268.336,266.829 196.255,103.014 124.174,266.829 67.997,196.235 90.946,315.766 
	301.564,315.766 324.514,196.235 "/>
<path style="fill:#FFFFFF;" d="M223.019,236.703c0-22.885-12.218-42.279-26.764-42.279c-14.481,0-26.764,19.329-26.764,42.279
	s12.283,42.279,26.764,42.279S223.019,259.588,223.019,236.703z"/>
<path style="fill:#194F82;" d="M196.255,172.639c-27.216,0-48.549,28.121-48.549,64.065s21.333,64.065,48.549,64.065
	s48.549-28.121,48.549-64.065S223.471,172.639,196.255,172.639z M196.255,278.982c-14.481,0-26.764-19.329-26.764-42.279
	s12.218-42.279,26.764-42.279c14.481,0,26.764,19.329,26.764,42.279S210.736,278.982,196.255,278.982z"/>
<polygon style="fill:#56ACE0;" points="76.142,357.269 316.368,357.269 320.118,337.552 72.393,337.552 "/>
<path style="fill:#194F82;" d="M386.187,64.55c-4.59-2.069-9.956-0.776-13.059,3.103l-93.931,118.109L206.211,20.008
	c-1.745-3.943-5.624-6.465-9.956-6.465c-4.331,0-8.275,2.521-9.956,6.465l-72.986,165.754L19.447,67.653
	c-3.103-3.943-8.469-5.236-13.059-3.103c-4.59,2.069-7.111,7.046-6.206,11.96L56.36,370.134c1.034,5.107,5.495,8.857,10.731,8.857
	h258.263c5.236,0,9.762-3.685,10.731-8.857l56.242-293.624C393.298,71.596,390.777,66.618,386.187,64.55z M316.368,357.269H76.142
	l-3.814-19.717h247.725L316.368,357.269z M324.32,315.766H68.191L29.985,115.944l77.576,97.616c2.392,3.038,6.206,4.59,9.956,4.008
	c3.814-0.453,7.046-2.909,8.598-6.4l70.141-159.612l70.271,159.612c1.552,3.491,4.784,5.947,8.598,6.4
	c3.814,0.453,7.564-1.034,9.956-4.008l77.511-97.616L324.32,315.766z"/>
</svg>